<svg width="128" height="128" viewBox="0 0 128 128" fill="none" xmlns="http://www.w3.org/2000/svg">
  <!-- 背景圆形 -->
  <circle cx="64" cy="64" r="60" fill="#007ACC" opacity="0.1"/>
  
  <!-- 机器人头部 -->
  <rect x="36" y="40" width="56" height="48" rx="8" fill="#007ACC"/>
  
  <!-- 天线 -->
  <line x1="64" y1="28" x2="64" y2="40" stroke="#007ACC" stroke-width="3" stroke-linecap="round"/>
  <circle cx="64" cy="26" r="4" fill="#007ACC"/>
  
  <!-- 眼睛 -->
  <circle cx="50" cy="58" r="5" fill="white"/>
  <circle cx="78" cy="58" r="5" fill="white"/>
  
  <!-- 嘴巴/显示屏 -->
  <rect x="44" y="70" width="40" height="12" rx="2" fill="white" opacity="0.8"/>
  
  <!-- 代码符号 -->
  <path d="M 52 76 L 56 76 M 60 76 L 64 76 M 68 76 L 72 76" stroke="#007ACC" stroke-width="2" stroke-linecap="round"/>
  
  <!-- 机器人身体 -->
  <rect x="40" y="88" width="48" height="28" rx="4" fill="#007ACC" opacity="0.8"/>
  
  <!-- 按钮 -->
  <circle cx="56" cy="100" r="3" fill="white" opacity="0.6"/>
  <circle cx="72" cy="100" r="3" fill="white" opacity="0.6"/>
  
  <!-- 手臂 -->
  <rect x="28" y="92" width="8" height="20" rx="4" fill="#007ACC" opacity="0.6"/>
  <rect x="92" y="92" width="8" height="20" rx="4" fill="#007ACC" opacity="0.6"/>
</svg>